<?xml version="1.0" encoding="utf-8"?>
<!-- Generator: Adobe Illustrator 27.9.0, SVG Export Plug-In . SVG Version: 6.00 Build 0)  -->
<svg version="1.1" id="Layer_1" xmlns="http://www.w3.org/2000/svg" xmlns:xlink="http://www.w3.org/1999/xlink" x="0px" y="0px"
	 viewBox="0 0 1080 1080" style="enable-background:new 0 0 1080 1080;" xml:space="preserve">
<style type="text/css">
	.st0{fill:#9E9E9E;}
	.st1{fill:none;}
	.st2{clip-path:url(#SVGID_00000020397071399822355820000009800288373878504102_);}
	.st3{clip-path:url(#SVGID_00000021797972873567834370000007488496776963878331_);}
	.st4{fill:none;stroke:#333333;stroke-width:82;}
	.st5{clip-path:url(#SVGID_00000154417870360118368510000010089119054683680387_);}
	.st6{clip-path:url(#SVGID_00000098941185289470491350000004118851304093778311_);}
	.st7{clip-path:url(#SVGID_00000016789638645275028120000016921142969474700702_);}
	.st8{clip-path:url(#SVGID_00000126290066377391995150000014480274689416787899_);}
	.st9{clip-path:url(#SVGID_00000155131520717058491050000007993792113587685295_);}
	.st10{clip-path:url(#SVGID_00000024715701926011358750000015402088853870763194_);}
</style>
<g>
	<path class="st0" d="M329.3,566.2c0-146.6,86.2-273.1,210.7-331.5c-47.1-22.1-99.7-34.4-155.2-34.4
		c-202.1,0-365.9,163.8-365.9,365.9s163.8,365.9,365.9,365.9c55.5,0,108.1-12.3,155.2-34.4C415.5,839.3,329.3,712.8,329.3,566.2z"/>
</g>
<rect x="18.9" y="200.3" class="st1" width="731.8" height="731.8"/>
<g>
	<defs>
		<rect id="SVGID_1_" x="18.9" y="200.3" width="731.8" height="731.8"/>
	</defs>
	<clipPath id="SVGID_00000038410875927655319570000015318424033326906285_">
		<use xlink:href="#SVGID_1_"  style="overflow:visible;"/>
	</clipPath>
	<g style="clip-path:url(#SVGID_00000038410875927655319570000015318424033326906285_);">
		<g>
			<defs>
				<path id="SVGID_00000010276318165271838520000016068035410160216729_" d="M384.8,200.3c-202.1,0-365.9,163.8-365.9,365.9
					c0,202.1,163.8,365.9,365.9,365.9c202.1,0,365.9-163.8,365.9-365.9C750.7,364.1,586.9,200.3,384.8,200.3z"/>
			</defs>
			<clipPath id="SVGID_00000055673124413629118050000012041160650601315218_">
				<use xlink:href="#SVGID_00000010276318165271838520000016068035410160216729_"  style="overflow:visible;"/>
			</clipPath>
			<g style="clip-path:url(#SVGID_00000055673124413629118050000012041160650601315218_);">
				<path class="st4" d="M384.8,200.3c-202.1,0-365.9,163.8-365.9,365.9c0,202.1,163.8,365.9,365.9,365.9
					c202.1,0,365.9-163.8,365.9-365.9C750.7,364.1,586.9,200.3,384.8,200.3z"/>
			</g>
		</g>
	</g>
</g>
<g>
	<defs>
		<rect id="SVGID_00000109022228186838241210000014160973711403740072_" x="329.3" y="200.3" width="731.8" height="731.8"/>
	</defs>
	<clipPath id="SVGID_00000036956451044558888200000006434287370588846208_">
		<use xlink:href="#SVGID_00000109022228186838241210000014160973711403740072_"  style="overflow:visible;"/>
	</clipPath>
	<g style="clip-path:url(#SVGID_00000036956451044558888200000006434287370588846208_);">
		<g>
			<defs>
				<path id="SVGID_00000124149289357312101000000000476866943321586075_" d="M695.2,200.3c-202.1,0-365.9,163.8-365.9,365.9
					c0,202.1,163.8,365.9,365.9,365.9c202.1,0,365.9-163.8,365.9-365.9C1061.1,364.1,897.2,200.3,695.2,200.3z"/>
			</defs>
			<clipPath id="SVGID_00000036253700106428116780000005308891827309436819_">
				<use xlink:href="#SVGID_00000124149289357312101000000000476866943321586075_"  style="overflow:visible;"/>
			</clipPath>
			<g style="clip-path:url(#SVGID_00000036253700106428116780000005308891827309436819_);">
				<path class="st4" d="M695.2,200.3c-202.1,0-365.9,163.8-365.9,365.9c0,202.1,163.8,365.9,365.9,365.9
					c202.1,0,365.9-163.8,365.9-365.9C1061.1,364.1,897.2,200.3,695.2,200.3z"/>
			</g>
		</g>
	</g>
</g>
<g>
	<defs>
		<rect id="SVGID_00000065766945552517441340000002080851248657262736_" x="329.3" y="200.3" width="731.8" height="731.8"/>
	</defs>
	<clipPath id="SVGID_00000142866362467195299510000005267091947441918888_">
		<use xlink:href="#SVGID_00000065766945552517441340000002080851248657262736_"  style="overflow:visible;"/>
	</clipPath>
</g>
<g>
	<defs>
		<rect id="SVGID_00000168092601368531134660000007418531717420280221_" x="329.3" y="200.3" width="731.8" height="731.8"/>
	</defs>
	<clipPath id="SVGID_00000173121707116402971360000005324339449665558707_">
		<use xlink:href="#SVGID_00000168092601368531134660000007418531717420280221_"  style="overflow:visible;"/>
	</clipPath>
	<g style="clip-path:url(#SVGID_00000173121707116402971360000005324339449665558707_);">
		<g>
			<defs>
				<path id="SVGID_00000067229307898018198660000002676947678040018361_" d="M695.2,200.3c-202.1,0-365.9,163.8-365.9,365.9
					c0,202.1,163.8,365.9,365.9,365.9c202.1,0,365.9-163.8,365.9-365.9C1061.1,364.1,897.2,200.3,695.2,200.3z"/>
			</defs>
			<clipPath id="SVGID_00000015313477577239768200000010482415215088102814_">
				<use xlink:href="#SVGID_00000067229307898018198660000002676947678040018361_"  style="overflow:visible;"/>
			</clipPath>
			<g style="clip-path:url(#SVGID_00000015313477577239768200000010482415215088102814_);">
				<path class="st4" d="M695.2,200.3c-202.1,0-365.9,163.8-365.9,365.9c0,202.1,163.8,365.9,365.9,365.9
					c202.1,0,365.9-163.8,365.9-365.9C1061.1,364.1,897.2,200.3,695.2,200.3z"/>
			</g>
		</g>
	</g>
</g>
<g>
	<defs>
		<rect id="SVGID_00000034055122868891162310000017739029688927699108_" x="18.9" y="200.3" width="731.8" height="731.8"/>
	</defs>
	<clipPath id="SVGID_00000069368982871475113500000018229790437788825008_">
		<use xlink:href="#SVGID_00000034055122868891162310000017739029688927699108_"  style="overflow:visible;"/>
	</clipPath>
	<g style="clip-path:url(#SVGID_00000069368982871475113500000018229790437788825008_);">
		<g>
			<defs>
				<path id="SVGID_00000035495364753268826500000010054922703218392483_" d="M384.8,200.3c-202.1,0-365.9,163.8-365.9,365.9
					c0,202.1,163.8,365.9,365.9,365.9c202.1,0,365.9-163.8,365.9-365.9C750.7,364.1,586.9,200.3,384.8,200.3z"/>
			</defs>
			<clipPath id="SVGID_00000091731798428152412990000014091218752717815223_">
				<use xlink:href="#SVGID_00000035495364753268826500000010054922703218392483_"  style="overflow:visible;"/>
			</clipPath>
			<g style="clip-path:url(#SVGID_00000091731798428152412990000014091218752717815223_);">
				<path class="st4" d="M384.8,200.3c-202.1,0-365.9,163.8-365.9,365.9c0,202.1,163.8,365.9,365.9,365.9
					c202.1,0,365.9-163.8,365.9-365.9C750.7,364.1,586.9,200.3,384.8,200.3z"/>
			</g>
		</g>
	</g>
</g>
</svg>
