<svg xmlns="http://www.w3.org/2000/svg" xmlns:xlink="http://www.w3.org/1999/xlink" width="123.037" height="136.974" viewBox="0 0 123.037 136.974">
  <defs>
    <clipPath id="clip-path">
      <rect id="Rectangle_689" data-name="Rectangle 689" width="123.037" height="136.974" fill="#fafafb"/>
    </clipPath>
  </defs>
  <g id="Group_577" data-name="Group 577" transform="translate(-649 -509.526)">
    <g id="Group_575" data-name="Group 575" transform="translate(0 -10)">
      <g id="Group_562" data-name="Group 562" transform="translate(649 519.526)" style="mix-blend-mode: normal;isolation: isolate">
        <g id="Group_561" data-name="Group 561">
          <g id="Group_560" data-name="Group 560" clip-path="url(#clip-path)">
            <path id="Path_567" data-name="Path 567" d="M0,44.475V96.489a16.473,16.473,0,0,0,8.237,14.266l45.045,26.007a16.473,16.473,0,0,0,16.473,0L114.8,110.755a16.473,16.473,0,0,0,8.237-14.266V44.475A16.473,16.473,0,0,0,114.8,30.209L69.755,4.2a16.473,16.473,0,0,0-16.473,0L8.237,30.209A16.473,16.473,0,0,0,0,44.475" transform="translate(0 -1.995)" fill="#fafafb"/>
          </g>
        </g>
      </g>
      <path id="Path_568" data-name="Path 568" d="M113.657,112.325c2.211-1.6,4.31-3.1,6.383-4.638,1.8-1.337,3.687-1.774,5.758-.658a5.244,5.244,0,0,1,2.773,5.111q-.042,12.126-.005,24.252a5.2,5.2,0,0,1-2.862,5.062,4.96,4.96,0,0,1-5.569-.647c-2.082-1.528-4.173-3.045-6.45-4.7-.29.743-.541,1.335-.754,1.941a15.321,15.321,0,0,1-14.413,10.433c-6.024.064-12.05.081-18.073-.01a15.192,15.192,0,0,1-15.151-15.153c-.075-6.1-.089-12.2-.008-18.3A15.212,15.212,0,0,1,80.321,99.969c5.794-.076,11.591-.032,17.387-.016,7.441.021,12.75,3.766,15.316,10.767C113.2,111.2,113.4,111.678,113.657,112.325Z" transform="translate(613.618 464.412)" fill="none" stroke="#2a69b2" stroke-width="4"/>
    </g>
    <path id="Path_575" data-name="Path 575" d="M99.558,140.583h-.009c0,2.511-.067,5.025.018,7.533.089,2.627,1.97,3.74,4.194,2.457q6.223-3.59,12.346-7.352c2.223-1.36,2.271-3.538.087-4.879q-6.122-3.761-12.355-7.339c-2.374-1.367-4.19-.284-4.268,2.5-.066,2.357-.014,4.718-.014,7.077" transform="translate(595.017 437.875)" fill="#2a69b2"/>
  </g>
</svg>
