<svg xmlns="http://www.w3.org/2000/svg" xmlns:xlink="http://www.w3.org/1999/xlink" width="123.037" height="136.974" viewBox="0 0 123.037 136.974">
  <defs>
    <clipPath id="clip-path">
      <rect id="Rectangle_690" data-name="Rectangle 690" width="123.037" height="136.974" fill="none"/>
    </clipPath>
  </defs>
  <g id="Group_576" data-name="Group 576" transform="translate(-790.618 -519.526)">
    <g id="Group_574" data-name="Group 574">
      <g id="Group_565" data-name="Group 565" transform="translate(790.618 519.526)" style="mix-blend-mode: normal;isolation: isolate">
        <g id="Group_564" data-name="Group 564">
          <g id="Group_563" data-name="Group 563" clip-path="url(#clip-path)">
            <path id="Path_569" data-name="Path 569" d="M309.49,44.475V96.489a16.473,16.473,0,0,0,8.237,14.266l45.045,26.007a16.473,16.473,0,0,0,16.473,0l45.045-26.007a16.473,16.473,0,0,0,8.237-14.266V44.475a16.473,16.473,0,0,0-8.237-14.266L379.245,4.2a16.473,16.473,0,0,0-16.473,0L317.727,30.209a16.473,16.473,0,0,0-8.237,14.266" transform="translate(-309.49 -1.995)" fill="#fafafa"/>
          </g>
        </g>
      </g>
      <path id="Path_570" data-name="Path 570" d="M432.1,102.309q-10.98-.016-21.96,0t-21.96,0c-4.556.006-6.556,2-6.559,6.541q-.011,16.013,0,32.025c0,4.532,2.017,6.587,6.533,6.592q21.96.023,43.92,0c4.52,0,6.565-2.069,6.568-6.565q.01-16.013,0-32.025c0-4.539-2.015-6.562-6.542-6.568m1.134,3.291a1.365,1.365,0,1,1-1.365,1.365,1.365,1.365,0,0,1,1.365-1.365m-11.364,1.368a1.38,1.38,0,0,1,1.381-1.38h5.3a1.38,1.38,0,0,1,1.381,1.38v0a1.381,1.381,0,0,1-1.381,1.381h-5.3a1.381,1.381,0,0,1-1.381-1.381Zm14.116,33.908c0,2.991-.935,3.906-4,3.909q-21.822.019-43.644,0c-3.19,0-4.063-.885-4.067-4.066-.01-9.14.046-18.281-.044-27.419-.019-1.9.547-2.46,2.444-2.437,7.844.1,15.69.041,23.535.041,7.769,0,15.539.048,23.307-.036,1.8-.019,2.541.354,2.52,2.36-.1,9.215-.036,18.432-.05,27.648" transform="translate(442.008 463.123)" fill="#2a69b2"/>
      <path id="Path_571" data-name="Path 571" d="M442.221,129.4a1.533,1.533,0,0,1,.309,1.632c-.041.1-.081.2-.125.293q-5.177,11.113-10.362,22.224c-.05.108-.1.219-.151.326-.442.889-1.159,1.222-1.868.868a1.365,1.365,0,0,1-.485-1.939c.915-1.985,1.842-3.964,2.765-5.945q3.831-8.223,7.666-16.445c.139-.3.238-.706.481-.842a2.186,2.186,0,0,1,1.423-.4.829.829,0,0,1,.346.228" transform="translate(416.118 448.566)" fill="#2a69b2"/>
    </g>
    <path id="Path_572" data-name="Path 572" d="M471.311,149.692c-1.888-1.876-3.721-3.646-5.479-5.487a2.288,2.288,0,0,1-.636-1.56,1.55,1.55,0,0,1,2.665-.879c2.237,2.169,4.425,4.389,6.618,6.6a3.093,3.093,0,0,1-.071,2.822q-3.2,3.22-6.425,6.416a1.6,1.6,0,0,1-2.389.089,1.575,1.575,0,0,1,.161-2.386c1.618-1.644,3.262-3.265,4.892-4.9.22-.22.423-.457.663-.718" transform="translate(396.712 441.975)" fill="#2a69b2"/>
    <path id="Path_573" data-name="Path 573" d="M405.049,149.752c1.933,1.918,3.784,3.758,5.64,5.592a1.6,1.6,0,0,1,.382,1.962,1.408,1.408,0,0,1-1.631.836,2.064,2.064,0,0,1-1-.531q-3.242-3.185-6.437-6.419a2.9,2.9,0,0,1,0-2.892q3.2-3.226,6.43-6.43a1.581,1.581,0,0,1,2.326-.135,1.615,1.615,0,0,1-.065,2.4c-1.833,1.855-3.693,3.683-5.643,5.622" transform="translate(431.158 441.978)" fill="#2a69b2"/>
  </g>
</svg>
