<svg xmlns="http://www.w3.org/2000/svg" xmlns:xlink="http://www.w3.org/1999/xlink" width="123.037" height="136.974" viewBox="0 0 123.037 136.974">
  <defs>
    <clipPath id="clip-path">
      <rect id="Rectangle_691" data-name="Rectangle 691" width="123.037" height="136.974" fill="none"/>
    </clipPath>
  </defs>
  <g id="Group_573" data-name="Group 573" transform="translate(-931.346 -518.613)">
    <g id="Group_568" data-name="Group 568" transform="translate(931.346 518.613)" style="mix-blend-mode: normal;isolation: isolate">
      <g id="Group_567" data-name="Group 567">
        <g id="Group_566" data-name="Group 566" clip-path="url(#clip-path)">
          <path id="Path_574" data-name="Path 574" d="M617.034,42.48V94.494a16.474,16.474,0,0,0,8.237,14.266l45.045,26.007a16.473,16.473,0,0,0,16.473,0l45.045-26.007a16.473,16.473,0,0,0,8.237-14.266V42.48a16.473,16.473,0,0,0-8.237-14.266L686.789,2.207a16.473,16.473,0,0,0-16.473,0L625.271,28.214a16.473,16.473,0,0,0-8.237,14.266" transform="translate(-617.034 0)" fill="#fafafa"/>
        </g>
      </g>
    </g>
    <path id="Path_576" data-name="Path 576" d="M718.064,152.613q-9.305,0-18.611,0c-2.339,0-3.4-1.068-3.4-3.418q0-15.528,0-31.055c0-2.354,1.055-3.412,3.406-3.412q18.723,0,37.446,0c2.274,0,3.344,1.077,3.344,3.361q0,15.584,0,31.168c0,2.282-1.071,3.355-3.35,3.356q-9.418,0-18.835,0M699.2,144.677c.424-.455.662-.687.873-.942q5.581-6.725,11.154-13.458c1.433-1.734,2.629-1.811,4.156-.185,1.638,1.742,3.235,3.522,4.875,5.263,1.052,1.116,1.7,1.147,2.894.21.44-.346.853-.727,1.285-1.083,1.448-1.194,2.044-1.151,3.3.21q2.012,2.185,4.036,4.36c1.717,1.844,3.44,3.682,5.277,5.648.034-.348.06-.487.06-.626q-.006-12.22-.019-24.44c0-1.348-.452-1.772-1.846-1.772q-17.041-.005-34.082,0c-1.561,0-1.96.411-1.96,2q0,10.09,0,20.18Z" transform="translate(271.451 456.385)" fill="#2a69b2"/>
    <path id="Path_577" data-name="Path 577" d="M762.955,137.958a4.573,4.573,0,0,1-4.7-4.631,4.684,4.684,0,0,1,4.718-4.774,4.794,4.794,0,0,1,4.7,4.735,4.7,4.7,0,0,1-4.715,4.67" transform="translate(237.713 448.885)" fill="#2a69b2"/>
    <path id="Path_578" data-name="Path 578" d="M705.551,105.262h0A3.446,3.446,0,0,1,709,101.815H748.48a3.446,3.446,0,0,1,3.446,3.447V134.22a3.446,3.446,0,0,1-3.446,3.446h-.751" transform="translate(266.299 463.387)" fill="none" stroke="#2a69b2" stroke-linecap="round" stroke-linejoin="round" stroke-width="3.44"/>
  </g>
</svg>
