<svg width="100%" height="100%" viewBox="0 0 26 19" fill="none" xmlns="http://www.w3.org/2000/svg" fit="" preserveAspectRatio="xMidYMid meet" focusable="false">
<circle cx="9.27586" cy="9.27586" r="8.27586" stroke="#333333"></circle>
<path d="M25 9.27586C25 13.8465 21.2947 17.5517 16.7241 17.5517C15.3846 17.5517 14.1194 17.2335 13 16.6684C10.2999 15.3056 8.44824 12.507 8.44824 9.27586C8.44824 6.04477 10.2999 3.24616 13 1.88328C14.1194 1.31825 15.3846 1 16.7241 1C21.2947 1 25 4.70523 25 9.27586Z" stroke="#333333"></path>
<path d="M13 1.8252C10.2999 3.18808 8.44824 5.98796 8.44824 9.21905C8.44824 12.4501 10.2999 15.2475 13 16.6104C15.7 15.2475 17.5517 12.4489 17.5517 9.21778C17.5517 5.98669 15.7 3.18808 13 1.8252Z" fill="#9E9E9E" stroke="#333333" stroke-linecap="round"></path>
</svg>