<svg width="100%" height="100%" viewBox="0 0 24 25" fill="none" xmlns="http://www.w3.org/2000/svg" fit="" preserveAspectRatio="xMidYMid meet" focusable="false">
<rect opacity="0.4" x="24.0001" y="0.886475" width="24" height="24" rx="2" transform="rotate(90 24.0001 0.886475)"></rect>
<path fill-rule="evenodd" clip-rule="evenodd" d="M21.0001 7.88647C21.5524 7.88647 22.0001 8.33419 22.0001 8.88647V16.8865C22.0001 17.4388 21.5524 17.8865 21.0001 17.8865H3.00012C2.44784 17.8865 2.00012 17.4388 2.00012 16.8865V8.88647C2.00012 8.33419 2.44784 7.88647 3.00012 7.88647H21.0001ZM20.6365 12.4319C20.8875 12.4319 21.091 12.6354 21.091 12.8865C21.091 13.1375 20.8875 13.341 20.6365 13.341C20.3854 13.341 20.1819 13.1375 20.1819 12.8865C20.1819 12.6354 20.3854 12.4319 20.6365 12.4319ZM4.00012 11.1365C4.00012 10.9984 3.88819 10.8865 3.75012 10.8865C3.61205 10.8865 3.50012 10.9984 3.50012 11.1365V14.6365C3.50012 14.7745 3.61205 14.8865 3.75012 14.8865C3.88819 14.8865 4.00012 14.7745 4.00012 14.6365V11.1365Z" fill="#707070"></path>
</svg>
